<?xml version="1.0" encoding="utf-8"?>
<svg width="8px" height="8px" viewBox="0 0 8 8" version="1.1" xmlns:xlink="http://www.w3.org/1999/xlink" xmlns="http://www.w3.org/2000/svg">
  <desc>Created with Lunacy</desc>
  <defs>
    <filter filterUnits="userSpaceOnUse" color-interpolation-filters="sRGB" id="filter_1">
      <feFlood flood-opacity="0" result="BackgroundImageFix" />
      <feColorMatrix in="SourceAlpha" type="matrix" values="0 0 0 0 0 0 0 0 0 0 0 0 0 0 0 0 0 0 127 0" />
      <feOffset dx="0" dy="2" />
      <feGaussianBlur stdDeviation="2" />
      <feColorMatrix type="matrix" values="0 0 0 0 0 0 0 0 0 0 0 0 0 0 0 0 0 0 0.08627451 0" />
      <feBlend mode="normal" in2="BackgroundImageFix" result="effect0_dropShadow" />
      <feBlend mode="normal" in="SourceGraphic" in2="effect0_dropShadow" result="shape" />
    </filter>
    <rect width="1024" height="907" id="artboard_1" />
    <rect width="8" height="8" id="slice_1" />
    <clipPath id="clip_1">
      <use xlink:href="#slice_1" clip-rule="evenodd" />
    </clipPath>
    <clipPath id="clip_2">
      <use xlink:href="#artboard_1" clip-rule="evenodd" />
    </clipPath>
  </defs>
  <g id="Shape" clip-path="url(#clip_1)">
    <use xlink:href="#slice_1" stroke="none" fill="none" />
    <g id="M_HOMEPAGE_PR" clip-path="url(#clip_2)" transform="translate(-415.0977 -209)">
      <use xlink:href="#artboard_1" stroke="none" fill="#FFFFFF" />
      <path d="M0 0L1440 0L1440 1924L0 1924L0 0Z" transform="translate(-207 0)" id="Rectangle-1" fill="#EAE9EB" stroke="none" />
      <g id="ONE" transform="translate(42.99995 166)">
        <g filter="url(#filter_1)">
          <path d="M2.999 0L616.903 0Q617.051 0 617.197 0.014441Q617.344 0.028882 617.488 0.0576249Q617.633 0.0863679 617.774 0.129136Q617.915 0.171904 618.051 0.228285Q618.187 0.284667 618.317 0.354118Q618.447 0.42357 618.569 0.505423Q618.692 0.587276 618.806 0.680742Q618.92 0.774208 619.024 0.878387Q619.128 0.982566 619.222 1.09645Q619.315 1.21034 619.397 1.33284Q619.479 1.45535 619.548 1.58528Q619.618 1.71522 619.674 1.85133Q619.73 1.98745 619.773 2.12844Q619.816 2.26942 619.845 2.41392Q619.873 2.55842 619.888 2.70505Q619.902 2.85167 619.902 2.999L619.902 111.001Q619.902 111.148 619.888 111.295Q619.873 111.442 619.845 111.586Q619.816 111.731 619.773 111.872Q619.73 112.013 619.674 112.149Q619.618 112.285 619.548 112.415Q619.479 112.545 619.397 112.667Q619.315 112.79 619.222 112.904Q619.128 113.017 619.024 113.122Q618.92 113.226 618.806 113.319Q618.692 113.413 618.569 113.495Q618.447 113.576 618.317 113.646Q618.187 113.715 618.051 113.772Q617.915 113.828 617.774 113.871Q617.633 113.914 617.488 113.942Q617.344 113.971 617.197 113.986Q617.051 114 616.903 114L2.999 114Q2.85167 114 2.70505 113.986Q2.55842 113.971 2.41392 113.942Q2.26942 113.914 2.12844 113.871Q1.98745 113.828 1.85133 113.772Q1.71522 113.715 1.58528 113.646Q1.45535 113.576 1.33284 113.495Q1.21034 113.413 1.09645 113.319Q0.982566 113.226 0.878387 113.122Q0.774208 113.017 0.680742 112.904Q0.587276 112.79 0.505423 112.667Q0.42357 112.545 0.354118 112.415Q0.284667 112.285 0.228285 112.149Q0.171904 112.013 0.129136 111.872Q0.0863679 111.731 0.0576249 111.586Q0.028882 111.442 0.014441 111.295Q0 111.148 0 111.001L0 2.999Q0 2.85167 0.014441 2.70505Q0.028882 2.55842 0.0576249 2.41392Q0.0863679 2.26942 0.129136 2.12844Q0.171904 1.98745 0.228285 1.85133Q0.284667 1.71522 0.354118 1.58528Q0.42357 1.45535 0.505423 1.33284Q0.587276 1.21034 0.680742 1.09645Q0.774208 0.982566 0.878387 0.878387Q0.982566 0.774208 1.09645 0.680742Q1.21034 0.587276 1.33284 0.505423Q1.45535 0.42357 1.58528 0.354118Q1.71522 0.284667 1.85133 0.228285Q1.98745 0.171904 2.12844 0.129136Q2.26942 0.0863679 2.41392 0.0576249Q2.55842 0.028882 2.70505 0.014441Q2.85167 0 2.999 0Z" id="Rectangle-157" fill="#FFFFFF" stroke="none" />
        </g>
        <g id="STATS" transform="translate(361.0977 18)">
          <g id="INSTAGRAM">
            <g id="REACH" fill="#8D8D8D" transform="translate(4 24)">
              <path d="M36.604 6.528Q36.692 6.528 36.756 6.596L37.18 7.056Q36.828 7.492 36.314 7.724Q35.8 7.956 35.08 7.956Q34.436 7.956 33.922 7.736Q33.408 7.516 33.044 7.124Q32.68 6.732 32.486 6.188Q32.292 5.644 32.292 5Q32.292 4.348 32.508 3.806Q32.724 3.264 33.116 2.872Q33.508 2.48 34.054 2.262Q34.6 2.044 35.26 2.044Q35.904 2.044 36.386 2.25Q36.868 2.456 37.212 2.796L36.852 3.296Q36.82 3.344 36.77 3.38Q36.72 3.416 36.632 3.416Q36.54 3.416 36.444 3.344Q36.348 3.272 36.2 3.188Q36.052 3.104 35.826 3.032Q35.6 2.96 35.252 2.96Q34.844 2.96 34.502 3.102Q34.16 3.244 33.914 3.508Q33.668 3.772 33.53 4.15Q33.392 4.528 33.392 5Q33.392 5.488 33.53 5.868Q33.668 6.248 33.904 6.508Q34.14 6.768 34.46 6.906Q34.78 7.044 35.148 7.044Q35.368 7.044 35.546 7.02Q35.724 6.996 35.874 6.944Q36.024 6.892 36.158 6.81Q36.292 6.728 36.424 6.608Q36.464 6.572 36.508 6.55Q36.552 6.528 36.604 6.528ZM18.24 5.632L18.24 7.892L17.164 7.892L17.164 2.108L18.928 2.108Q19.52 2.108 19.942 2.23Q20.364 2.352 20.634 2.572Q20.904 2.792 21.03 3.098Q21.156 3.404 21.156 3.772Q21.156 4.064 21.07 4.324Q20.984 4.584 20.822 4.796Q20.66 5.008 20.422 5.168Q20.184 5.328 19.88 5.424Q20.084 5.54 20.232 5.756L21.68 7.892L20.712 7.892C20.6187 7.892 20.5393 7.87333 20.474 7.836Q20.376 7.78 20.308 7.676L19.092 5.824Q19.024 5.72 18.942 5.676Q18.86 5.632 18.7 5.632L18.24 5.632ZM26.016 2.108L26.016 2.964L23.452 2.964L23.452 4.568L25.472 4.568L25.472 5.396L23.452 5.396L23.452 7.032L26.016 7.032L26.016 7.892L22.368 7.892L22.368 2.108L26.016 2.108ZM31.2 7.892L32.032 7.892L29.76 2.108L28.66 2.108L26.388 7.892L27.224 7.892Q27.36 7.892 27.454 7.816Q27.548 7.74 27.58 7.648L28.012 6.468L30.408 6.468L30.84 7.648Q30.88 7.752 30.97 7.822Q31.06 7.892 31.2 7.892ZM41.788 7.892L42.872 7.892L42.872 2.108L41.788 2.108L41.788 4.596L39.076 4.596L39.076 2.108L37.992 2.108L37.992 7.892L39.076 7.892L39.076 5.364L41.788 5.364L41.788 7.892ZM18.24 4.86L18.912 4.86Q19.216 4.86 19.442 4.784Q19.668 4.708 19.814 4.574Q19.96 4.44 20.032 4.256Q20.104 4.072 20.104 3.852Q20.104 3.412 19.814 3.176Q19.524 2.94 18.928 2.94L18.24 2.94L18.24 4.86ZM30.132 5.708L28.288 5.708L28.992 3.792Q29.044 3.66 29.098 3.484Q29.152 3.308 29.208 3.104Q29.264 3.308 29.322 3.482Q29.38 3.656 29.428 3.784L30.132 5.708Z" />
            </g>
            <path d="M1.01529 0L6.89479 0C7.45316 0 7.91 0.413392 7.91 1.01521L7.91 6.89487C7.91 7.49669 7.45316 7.91008 6.89479 7.91008L1.01529 7.91008C0.456762 7.91008 0 7.49669 0 6.89487L0 1.01521C0 0.413392 0.456762 0 1.01529 0ZM5.40618 1.23498C5.40618 1.039 5.56625 0.878844 5.76215 0.878844L6.65618 0.878844C6.85207 0.878844 7.01231 1.039 7.01231 1.23498L7.01231 2.08735C7.01231 2.28324 6.85207 2.44348 6.65618 2.44348L5.76215 2.44348C5.56625 2.44348 5.40618 2.28324 5.40618 2.08735L5.40618 1.23498ZM2.37388 3.93786C2.37388 3.08769 3.08517 2.39857 3.96247 2.39857C4.83993 2.39857 5.55123 3.08769 5.55123 3.93786C5.55123 4.78804 4.83985 5.47716 3.96247 5.47716C3.08517 5.47716 2.37388 4.78804 2.37388 3.93786ZM7.01621 3.34515L6.31986 3.34515C6.38573 3.56021 6.42138 3.78802 6.42138 4.02371C6.42138 5.33942 5.32041 6.40595 3.96255 6.40595C2.60478 6.40595 1.50397 5.33942 1.50397 4.02371C1.50397 3.78786 1.53954 3.56013 1.60549 3.34515L0.879006 3.34515L0.879006 6.68647C0.879006 6.85938 1.02049 7.00094 1.19348 7.00094L6.70174 7.00094C6.87473 7.00094 7.01621 6.85946 7.01621 6.68647L7.01621 3.34515Z" transform="translate(11 25)" id="Shape" fill="#D9D9D9" fill-rule="evenodd" stroke="none" />
          </g>
        </g>
      </g>
    </g>
  </g>
</svg>