<?xml version="1.0" encoding="utf-8"?>
<svg width="8px" height="8px" viewBox="0 0 8 8" version="1.1" xmlns:xlink="http://www.w3.org/1999/xlink" xmlns="http://www.w3.org/2000/svg">
  <desc>Created with Lunacy</desc>
  <path d="M1.01529 0L6.89479 0C7.45316 0 7.91 0.413392 7.91 1.01521L7.91 6.89487C7.91 7.49669 7.45316 7.91008 6.89479 7.91008L1.01529 7.91008C0.456762 7.91008 0 7.49669 0 6.89487L0 1.01521C0 0.413392 0.456762 0 1.01529 0ZM5.40618 1.23498C5.40618 1.039 5.56625 0.878844 5.76215 0.878844L6.65618 0.878844C6.85207 0.878844 7.01231 1.039 7.01231 1.23498L7.01231 2.08735C7.01231 2.28324 6.85207 2.44348 6.65618 2.44348L5.76215 2.44348C5.56625 2.44348 5.40618 2.28324 5.40618 2.08735L5.40618 1.23498ZM2.37388 3.93786C2.37388 3.08769 3.08517 2.39857 3.96247 2.39857C4.83993 2.39857 5.55123 3.08769 5.55123 3.93786C5.55123 4.78804 4.83985 5.47716 3.96247 5.47716C3.08517 5.47716 2.37388 4.78804 2.37388 3.93786ZM7.01621 3.34515L6.31986 3.34515C6.38573 3.56021 6.42138 3.78802 6.42138 4.02371C6.42138 5.33942 5.32041 6.40595 3.96255 6.40595C2.60478 6.40595 1.50397 5.33942 1.50397 4.02371C1.50397 3.78786 1.53954 3.56013 1.60549 3.34515L0.879006 3.34515L0.879006 6.68647C0.879006 6.85938 1.02049 7.00094 1.19348 7.00094L6.70174 7.00094C6.87473 7.00094 7.01621 6.85946 7.01621 6.68647L7.01621 3.34515Z" id="Shape" fill="#FFFFFF" fill-rule="evenodd" stroke="none" />
</svg>