<?xml version="1.0" encoding="utf-8"?>
<svg width="25px" height="19px" viewBox="0 0 25 19" version="1.1" xmlns:xlink="http://www.w3.org/1999/xlink" xmlns="http://www.w3.org/2000/svg">
  <desc>Created with Lunacy</desc>
  <path d="M1.92511 0L23.0749 0C24.135 0 25 0.875281 25 1.94803L25 17.0199C25 18.0927 24.135 18.968 23.0749 18.968L1.92511 18.968C0.864979 18.968 0 18.0927 0 17.0199L0 1.94803C0 0.875281 0.864979 0 1.92511 0ZM22.7954 1.44101L12.6319 10.2365L2.46835 1.44101L22.7954 1.44101ZM23.0749 17.527C23.3492 17.527 23.576 17.2975 23.576 17.0199L23.576 2.6632L13.0854 11.7309C13.0802 11.7362 13.0696 11.7416 13.0643 11.7469C13.0591 11.7522 13.0485 11.7576 13.0432 11.7629C13.0274 11.7736 13.0169 11.7789 13.0011 11.7896C12.9958 11.7949 12.9905 11.7949 12.9852 11.8003L12.9219 11.8323C12.9167 11.8323 12.9114 11.8376 12.9061 11.8376C12.885 11.8483 12.8692 11.8537 12.8534 11.859C12.8481 11.859 12.8376 11.8643 12.8323 11.8643C12.8165 11.8643 12.8006 11.8697 12.7848 11.875C12.7795 11.875 12.769 11.8803 12.7637 11.8803C12.7479 11.8857 12.7268 11.891 12.711 11.891L12.6951 11.891C12.6741 11.8963 12.6477 11.8963 12.6266 11.8963C12.6055 11.8963 12.5791 11.891 12.558 11.891L12.5422 11.891C12.5264 11.8857 12.5053 11.8857 12.4895 11.8803C12.4842 11.8803 12.4736 11.875 12.4684 11.875C12.4525 11.875 12.4367 11.8697 12.4209 11.8643C12.4156 11.8643 12.4051 11.859 12.3998 11.859C12.3787 11.8537 12.3629 11.843 12.347 11.8376C12.3418 11.8376 12.3365 11.8323 12.3312 11.8323L12.2679 11.8003C12.2627 11.7949 12.2574 11.7949 12.2521 11.7896C12.2363 11.7843 12.2257 11.7736 12.2099 11.7629C12.2046 11.7576 12.1941 11.7522 12.1888 11.7469C12.1835 11.7416 12.173 11.7362 12.1677 11.7309L1.42405 2.43371L1.42405 17.0199C1.42405 17.2975 1.65084 17.527 1.92511 17.527L23.0749 17.527Z" id="Shape" fill="#BDBDBD" fill-rule="evenodd" stroke="none" />
</svg>