<?xml version="1.0" encoding="utf-8"?>
<svg width="9px" height="9px" viewBox="0 0 9 9" version="1.1" xmlns:xlink="http://www.w3.org/1999/xlink" xmlns="http://www.w3.org/2000/svg">
  <desc>Created with Lunacy</desc>
  <g id="Group-3">
    <path d="M4.48805 8.44581C4.47347 8.44693 4.45828 8.44755 4.44309 8.44755C3.90991 8.44755 3.56768 8.20564 3.23677 7.97167C3.00826 7.81021 2.79265 7.6578 2.53858 7.61548C2.4146 7.59496 2.2912 7.58453 2.17195 7.58453C1.95712 7.58453 1.78764 7.61769 1.66391 7.64188C1.58872 7.65661 1.52386 7.66925 1.47456 7.66925C1.42306 7.66925 1.36725 7.65811 1.343 7.57524C1.32192 7.50344 1.30667 7.43391 1.292 7.36664C1.25421 7.19351 1.22737 7.08705 1.15482 7.07591C0.309171 6.94529 0.0671388 6.76718 0.0131729 6.6408C0.00553075 6.62272 0.0011845 6.60461 0.000152262 6.58669C-0.00258225 6.53813 0.0318074 6.49527 0.0797792 6.48743C1.37974 6.27336 1.96268 4.94473 1.98688 4.8883C2.06853 4.72245 2.08411 4.58249 2.03543 4.46776C1.94622 4.25751 1.65528 4.16512 1.46266 4.10402C1.41554 4.08911 1.37087 4.07501 1.33563 4.0611C0.951311 3.90916 0.91933 3.7532 0.934433 3.67372C0.960184 3.53828 1.14119 3.44389 1.28757 3.44389C1.32771 3.44389 1.36305 3.45101 1.39276 3.46488C1.56565 3.54587 1.72145 3.58692 1.85589 3.58692C2.04166 3.58692 2.12273 3.50885 2.13266 3.49862C2.12793 3.41065 2.12208 3.31874 2.11611 3.22394C2.07739 2.60934 2.02942 1.84567 2.22386 1.40976C2.80662 0.103097 4.04242 0.00159368 4.40728 0.00159368C4.41663 0.00159368 4.56724 6.03104e-08 4.56724 6.03104e-08C4.95457 -9.04865e-05 6.19307 0.101612 6.77615 1.40898C6.97065 1.84513 6.92253 2.60945 6.88374 3.22358L6.88213 3.25027C6.87675 3.3358 6.87157 3.4189 6.86723 3.49848C6.87652 3.50797 6.95109 3.57975 7.11951 3.58622C7.24767 3.58131 7.39475 3.54051 7.55616 3.4649C7.60348 3.44283 7.65601 3.43815 7.69178 3.43815C7.7464 3.43815 7.8018 3.44873 7.84777 3.46793C7.98113 3.51534 8.06666 3.60686 8.06849 3.70248C8.07019 3.79252 8.00145 3.9279 7.66424 4.06112C7.62929 4.07484 7.58461 4.08904 7.53731 4.10404C7.34452 4.16521 7.05366 4.25753 6.96451 4.46773C6.91578 4.58239 6.93139 4.72227 7.01092 4.88359C7.03724 4.94469 7.61967 6.27294 8.92019 6.48725C8.96822 6.49516 9.0025 6.53799 8.99986 6.5866C8.99877 6.60481 8.99433 6.62316 8.98656 6.641C8.93293 6.76648 8.69107 6.94435 7.84515 7.07506C7.77604 7.08567 7.74926 7.17573 7.70802 7.36456C7.69303 7.43328 7.67784 7.50079 7.65694 7.57178C7.63892 7.63339 7.60053 7.66222 7.53595 7.66222C7.48061 7.66222 7.41688 7.6542 7.33613 7.63835C7.19292 7.61034 7.03235 7.58453 6.82805 7.58453C6.70875 7.58453 6.58532 7.59496 6.46125 7.61548C6.20746 7.6578 5.99198 7.80992 5.76391 7.97115C5.43235 8.20564 5.09017 8.44755 4.55683 8.44755C4.53363 8.44755 4.51085 8.44688 4.48805 8.44581Z" transform="translate(0 9.048654E-05)" id="Shape" fill="#F60051" stroke="none" />
  </g>
</svg>