<?xml version="1.0" encoding="utf-8"?>
<svg width="9px" height="9px" viewBox="0 0 9 9" version="1.1" xmlns:xlink="http://www.w3.org/1999/xlink" xmlns="http://www.w3.org/2000/svg">
  <desc>Created with Lunacy</desc>
  <defs>
    <filter filterUnits="userSpaceOnUse" color-interpolation-filters="sRGB" id="filter_1">
      <feFlood flood-opacity="0" result="BackgroundImageFix" />
      <feColorMatrix in="SourceAlpha" type="matrix" values="0 0 0 0 0 0 0 0 0 0 0 0 0 0 0 0 0 0 127 0" />
      <feOffset dx="0" dy="2" />
      <feGaussianBlur stdDeviation="2" />
      <feColorMatrix type="matrix" values="0 0 0 0 0 0 0 0 0 0 0 0 0 0 0 0 0 0 0.08627451 0" />
      <feBlend mode="normal" in2="BackgroundImageFix" result="effect0_dropShadow" />
      <feBlend mode="normal" in="SourceGraphic" in2="effect0_dropShadow" result="shape" />
    </filter>
    <rect width="1024" height="907" id="artboard_1" />
    <rect width="9" height="9" id="slice_1" />
    <clipPath id="clip_1">
      <use xlink:href="#slice_1" clip-rule="evenodd" />
    </clipPath>
    <clipPath id="clip_2">
      <use xlink:href="#artboard_1" clip-rule="evenodd" />
    </clipPath>
  </defs>
  <g id="Shape" clip-path="url(#clip_1)">
    <use xlink:href="#slice_1" stroke="none" fill="none" />
    <g id="M_HOMEPAGE_PR" clip-path="url(#clip_2)" transform="translate(-413.0977 -253)">
      <use xlink:href="#artboard_1" stroke="none" fill="#FFFFFF" />
      <path d="M0 0L1440 0L1440 1924L0 1924L0 0Z" transform="translate(-207 0)" id="Rectangle-1" fill="#EAE9EB" stroke="none" />
      <g id="ONE" transform="translate(42.99995 166)">
        <g filter="url(#filter_1)">
          <path d="M2.999 0L616.903 0Q617.051 0 617.197 0.014441Q617.344 0.028882 617.488 0.0576249Q617.633 0.0863679 617.774 0.129136Q617.915 0.171904 618.051 0.228285Q618.187 0.284667 618.317 0.354118Q618.447 0.42357 618.569 0.505423Q618.692 0.587276 618.806 0.680742Q618.92 0.774208 619.024 0.878387Q619.128 0.982566 619.222 1.09645Q619.315 1.21034 619.397 1.33284Q619.479 1.45535 619.548 1.58528Q619.618 1.71522 619.674 1.85133Q619.73 1.98745 619.773 2.12844Q619.816 2.26942 619.845 2.41392Q619.873 2.55842 619.888 2.70505Q619.902 2.85167 619.902 2.999L619.902 111.001Q619.902 111.148 619.888 111.295Q619.873 111.442 619.845 111.586Q619.816 111.731 619.773 111.872Q619.73 112.013 619.674 112.149Q619.618 112.285 619.548 112.415Q619.479 112.545 619.397 112.667Q619.315 112.79 619.222 112.904Q619.128 113.017 619.024 113.122Q618.92 113.226 618.806 113.319Q618.692 113.413 618.569 113.495Q618.447 113.576 618.317 113.646Q618.187 113.715 618.051 113.772Q617.915 113.828 617.774 113.871Q617.633 113.914 617.488 113.942Q617.344 113.971 617.197 113.986Q617.051 114 616.903 114L2.999 114Q2.85167 114 2.70505 113.986Q2.55842 113.971 2.41392 113.942Q2.26942 113.914 2.12844 113.871Q1.98745 113.828 1.85133 113.772Q1.71522 113.715 1.58528 113.646Q1.45535 113.576 1.33284 113.495Q1.21034 113.413 1.09645 113.319Q0.982566 113.226 0.878387 113.122Q0.774208 113.017 0.680742 112.904Q0.587276 112.79 0.505423 112.667Q0.42357 112.545 0.354118 112.415Q0.284667 112.285 0.228285 112.149Q0.171904 112.013 0.129136 111.872Q0.0863679 111.731 0.0576249 111.586Q0.028882 111.442 0.014441 111.295Q0 111.148 0 111.001L0 2.999Q0 2.85167 0.014441 2.70505Q0.028882 2.55842 0.0576249 2.41392Q0.0863679 2.26942 0.129136 2.12844Q0.171904 1.98745 0.228285 1.85133Q0.284667 1.71522 0.354118 1.58528Q0.42357 1.45535 0.505423 1.33284Q0.587276 1.21034 0.680742 1.09645Q0.774208 0.982566 0.878387 0.878387Q0.982566 0.774208 1.09645 0.680742Q1.21034 0.587276 1.33284 0.505423Q1.45535 0.42357 1.58528 0.354118Q1.71522 0.284667 1.85133 0.228285Q1.98745 0.171904 2.12844 0.129136Q2.26942 0.0863679 2.41392 0.0576249Q2.55842 0.028882 2.70505 0.014441Q2.85167 0 2.999 0Z" id="Rectangle-157" fill="#FFFFFF" stroke="none" />
        </g>
        <g id="STATS" transform="translate(361.0977 18)">
          <g id="SNAPCHAT" transform="translate(0 44)">
            <g id="OPENS" fill="#8D8D8D" transform="translate(2 24)">
              <path d="M22.974 5Q22.974 5.636 22.762 6.178Q22.55 6.72 22.166 7.116Q21.782 7.512 21.242 7.734Q20.702 7.956 20.046 7.956Q19.39 7.956 18.848 7.734Q18.306 7.512 17.92 7.116Q17.534 6.72 17.322 6.178Q17.11 5.636 17.11 5Q17.11 4.364 17.322 3.822Q17.534 3.28 17.92 2.884Q18.306 2.488 18.848 2.266Q19.39 2.044 20.046 2.044Q20.702 2.044 21.242 2.268Q21.782 2.492 22.166 2.886Q22.55 3.28 22.762 3.822Q22.974 4.364 22.974 5ZM42.448 3.284Q42.506 3.248 42.55 3.16L42.814 2.652Q42.51 2.364 42.078 2.204Q41.646 2.044 41.134 2.044Q40.682 2.044 40.33 2.184Q39.978 2.324 39.736 2.556Q39.494 2.788 39.368 3.088Q39.242 3.388 39.242 3.704Q39.242 4.1 39.356 4.37Q39.47 4.64 39.658 4.82Q39.846 5 40.086 5.112Q40.326 5.224 40.574 5.304Q40.822 5.384 41.062 5.452Q41.302 5.52 41.49 5.618Q41.678 5.716 41.792 5.86Q41.906 6.004 41.906 6.232Q41.906 6.64 41.654 6.858Q41.402 7.076 40.942 7.076Q40.642 7.076 40.428 6.994Q40.214 6.912 40.056 6.812Q39.898 6.712 39.782 6.63Q39.666 6.548 39.566 6.548Q39.49 6.548 39.428 6.586Q39.366 6.624 39.322 6.68L39.01 7.196Q39.178 7.368 39.392 7.508Q39.606 7.648 39.852 7.748Q40.098 7.848 40.366 7.902Q40.634 7.956 40.91 7.956Q41.39 7.956 41.762 7.81Q42.134 7.664 42.392 7.41Q42.65 7.156 42.784 6.814Q42.918 6.472 42.918 6.08Q42.918 5.72 42.804 5.468Q42.69 5.216 42.502 5.042Q42.314 4.868 42.074 4.754Q41.834 4.64 41.584 4.554Q41.334 4.468 41.094 4.392Q40.854 4.316 40.666 4.22Q40.478 4.124 40.364 3.988Q40.25 3.852 40.25 3.648Q40.25 3.488 40.306 3.354Q40.362 3.22 40.476 3.124Q40.59 3.028 40.756 2.974Q40.922 2.92 41.146 2.92Q41.394 2.92 41.576 2.982Q41.758 3.044 41.894 3.12Q42.03 3.196 42.13 3.258Q42.23 3.32 42.31 3.32Q42.39 3.32 42.448 3.284ZM24.934 5.856L24.934 7.892L23.858 7.892L23.858 2.108L25.742 2.108Q26.322 2.108 26.746 2.244Q27.17 2.38 27.446 2.624Q27.722 2.868 27.854 3.208Q27.986 3.548 27.986 3.952Q27.986 4.372 27.846 4.722Q27.706 5.072 27.426 5.324Q27.146 5.576 26.726 5.716Q26.306 5.856 25.742 5.856L24.934 5.856ZM32.47 2.964L32.47 2.108L28.822 2.108L28.822 7.892L32.47 7.892L32.47 7.032L29.906 7.032L29.906 5.396L31.926 5.396L31.926 4.568L29.906 4.568L29.906 2.964L32.47 2.964ZM33.966 2.108Q34.038 2.108 34.086 2.114Q34.134 2.12 34.172 2.138Q34.21 2.156 34.246 2.19Q34.282 2.224 34.326 2.28L37.362 6.148Q37.346 6.008 37.34 5.874Q37.334 5.74 37.334 5.624L37.334 2.108L38.282 2.108L38.282 7.892L37.726 7.892Q37.598 7.892 37.514 7.852Q37.43 7.812 37.35 7.708L34.326 3.856Q34.338 3.984 34.344 4.11Q34.35 4.236 34.35 4.34L34.35 7.892L33.402 7.892L33.402 2.108L33.966 2.108ZM24.934 5.016L25.742 5.016Q26.038 5.016 26.258 4.942Q26.478 4.868 26.622 4.73Q26.766 4.592 26.838 4.394Q26.91 4.196 26.91 3.952Q26.91 3.72 26.838 3.532Q26.766 3.344 26.622 3.212Q26.478 3.08 26.258 3.01Q26.038 2.94 25.742 2.94L24.934 2.94L24.934 5.016ZM21.87 5Q21.87 4.524 21.744 4.146Q21.618 3.768 21.382 3.504Q21.146 3.24 20.808 3.1Q20.47 2.96 20.046 2.96Q19.622 2.96 19.282 3.1Q18.942 3.24 18.704 3.504Q18.466 3.768 18.338 4.146Q18.21 4.524 18.21 5Q18.21 5.476 18.338 5.854Q18.466 6.232 18.704 6.494Q18.942 6.756 19.282 6.896Q19.622 7.036 20.046 7.036Q20.47 7.036 20.808 6.896Q21.146 6.756 21.382 6.494Q21.618 6.232 21.744 5.854Q21.87 5.476 21.87 5Z" />
            </g>
            <path d="M4.48805 8.44581C4.47347 8.44693 4.45828 8.44755 4.44309 8.44755C3.90991 8.44755 3.56768 8.20564 3.23677 7.97167C3.00826 7.81021 2.79265 7.6578 2.53858 7.61548C2.4146 7.59496 2.2912 7.58453 2.17195 7.58453C1.95712 7.58453 1.78764 7.61769 1.66391 7.64188C1.58872 7.65661 1.52386 7.66925 1.47456 7.66925C1.42306 7.66925 1.36725 7.65811 1.343 7.57524C1.32192 7.50344 1.30667 7.43391 1.292 7.36664C1.25421 7.19351 1.22737 7.08705 1.15482 7.07591C0.309171 6.94529 0.0671388 6.76718 0.0131729 6.6408C0.00553075 6.62272 0.0011845 6.60461 0.000152262 6.58669C-0.00258225 6.53813 0.0318074 6.49527 0.0797792 6.48743C1.37974 6.27336 1.96268 4.94473 1.98688 4.8883C2.06853 4.72245 2.08411 4.58249 2.03543 4.46776C1.94622 4.25751 1.65528 4.16512 1.46266 4.10402C1.41554 4.08911 1.37087 4.07501 1.33563 4.0611C0.951311 3.90916 0.91933 3.7532 0.934433 3.67372C0.960184 3.53828 1.14119 3.44389 1.28757 3.44389C1.32771 3.44389 1.36305 3.45101 1.39276 3.46488C1.56565 3.54587 1.72145 3.58692 1.85589 3.58692C2.04166 3.58692 2.12273 3.50885 2.13266 3.49862C2.12793 3.41065 2.12208 3.31874 2.11611 3.22394C2.07739 2.60934 2.02942 1.84567 2.22386 1.40976C2.80662 0.103097 4.04242 0.00159368 4.40728 0.00159368C4.41663 0.00159368 4.56724 6.03104e-08 4.56724 6.03104e-08C4.95457 -9.04865e-05 6.19307 0.101612 6.77615 1.40898C6.97065 1.84513 6.92253 2.60945 6.88374 3.22358L6.88213 3.25027C6.87675 3.3358 6.87157 3.4189 6.86723 3.49848C6.87652 3.50797 6.95109 3.57975 7.11951 3.58622C7.24767 3.58131 7.39475 3.54051 7.55616 3.4649C7.60348 3.44283 7.65601 3.43815 7.69178 3.43815C7.7464 3.43815 7.8018 3.44873 7.84777 3.46793C7.98113 3.51534 8.06666 3.60686 8.06849 3.70248C8.07019 3.79252 8.00145 3.9279 7.66424 4.06112C7.62929 4.07484 7.58461 4.08904 7.53731 4.10404C7.34452 4.16521 7.05366 4.25753 6.96451 4.46773C6.91578 4.58239 6.93139 4.72227 7.01092 4.88359C7.03724 4.94469 7.61967 6.27294 8.92019 6.48725C8.96822 6.49516 9.0025 6.53799 8.99986 6.5866C8.99877 6.60481 8.99433 6.62316 8.98656 6.641C8.93293 6.76648 8.69107 6.94435 7.84515 7.07506C7.77604 7.08567 7.74926 7.17573 7.70802 7.36456C7.69303 7.43328 7.67784 7.50079 7.65694 7.57178C7.63892 7.63339 7.60053 7.66222 7.53595 7.66222C7.48061 7.66222 7.41688 7.6542 7.33613 7.63835C7.19292 7.61034 7.03235 7.58453 6.82805 7.58453C6.70875 7.58453 6.58532 7.59496 6.46125 7.61548C6.20746 7.6578 5.99198 7.80992 5.76391 7.97115C5.43235 8.20564 5.09017 8.44755 4.55683 8.44755C4.53363 8.44755 4.51085 8.44688 4.48805 8.44581Z" transform="translate(9 25.00009)" id="Shape" fill="#D9D9D9" stroke="none" />
          </g>
        </g>
      </g>
    </g>
  </g>
</svg>